PathFileType	4	(X/Y/Z)	 s11c0301.trc
DataRate	CameraRate	NumFrames	NumMarkers	Units	OrigDataRate	OrigDataStartFrame	OrigNumFrames
200	200	4	48	mm	200	251	2000
Frame#	Time	racr			lacr			c7			jug			rlel			rdr			llel			ldr			s2			lic			ric			lasi			rasi			rpsi			lpsi			rgt			lgt			rth1			rth2			rth3			rth4			rlfc			rmfc			rsh1			rsh2			rsh3			rsh4			rlmal			rcal			rtoe			rmt5			lth1			lth2			lth4			lth3			llfc			lmfc			llmal			lcal			lmt5			lsh1			lsh2			lsh3			lsh4			ltoe			SBIKE			LBIKE			RBIKE			
		X1	Y1	Z1	X2	Y2	Z2	X3	Y3	Z3	X4	Y4	Z4	X5	Y5	Z5	X6	Y6	Z6	X7	Y7	Z7	X8	Y8	Z8	X9	Y9	Z9	X10	Y10	Z10	X11	Y11	Z11	X12	Y12	Z12	X13	Y13	Z13	X14	Y14	Z14	X15	Y15	Z15	X16	Y16	Z16	X17	Y17	Z17	X18	Y18	Z18	X19	Y19	Z19	X20	Y20	Z20	X21	Y21	Z21	X22	Y22	Z22	X23	Y23	Z23	X24	Y24	Z24	X25	Y25	Z25	X26	Y26	Z26	X27	Y27	Z27	X28	Y28	Z28	X29	Y29	Z29	X30	Y30	Z30	X31	Y31	Z31	X32	Y32	Z32	X33	Y33	Z33	X34	Y34	Z34	X35	Y35	Z35	X36	Y36	Z36	X37	Y37	Z37	X38	Y38	Z38	X39	Y39	Z39	X40	Y40	Z40	X41	Y41	Z41	X42	Y42	Z42	X43	Y43	Z43	X44	Y44	Z44	X45	Y45	Z45	X46	Y46	Z46	X47	Y47	Z47	X48	Y48	Z48	
251	1.2550	458.413232	1399.860398	-106.831952	452.910895	1418.044064	-410.721993	360.638535	1530.507403	-259.609749	401.956376	1354.602392	-265.603480	584.055730	1158.366347	-27.646248	788.649667	931.683636	-51.707836	563.001902	1137.640116	-476.052853	805.329259	924.729259	-421.344420	-156.085001	1208.132330	-238.970374	51.710471	1242.523390	-449.824148	70.767028	1222.772275	-52.397382	84.611552	1167.068462	-414.958425	102.045141	1159.349091	-86.068282	-111.931456	1281.196351	-186.904502	-122.150930	1277.273070	-280.847193	18.374410	1063.657526	-33.136607	-12.766181	1108.313329	-458.912452	126.135815	962.479845	-27.910269	204.294029	921.363676	-40.259549	250.107359	848.467670	-56.688861	227.372985	948.798315	-51.324510	320.517175	768.761842	-76.337173	316.775429	752.121276	-203.882432	228.115925	639.210539	-64.862055	194.997714	559.951472	-84.285895	126.242982	505.325573	-86.282341	214.606691	549.397793	-116.917908	34.068463	408.558146	-99.763851	-28.286816	422.164840	-149.085973	203.675609	254.475373	-138.633221	128.211666	264.864156	-71.358947	123.012751	1033.379683	-468.023372	205.593659	1011.256285	-462.460968	224.846606	1041.837434	-453.730125	268.469692	946.953660	-458.558880	383.051552	862.043481	-429.409010	391.464911	856.721604	-303.185615	276.083365	444.661020	-411.712896	223.134597	392.188789	-377.530998	432.290885	373.771001	-438.960827	351.438928	739.201466	-449.948084	357.116987	654.460951	-434.942088	320.216109	574.458042	-430.936716	387.386452	651.818029	-411.481548	520.521028	411.770838	-367.836502	-206.049278	956.367562	-261.590946	1.344987	82.516585	-461.004727	-15.312111	81.021703	-62.496522	
252	1.2600	458.985214	1400.632199	-106.765145	453.379413	1418.684424	-410.286197	361.003016	1530.570577	-259.292103	402.512834	1354.646363	-265.391568	583.578516	1158.328470	-26.950304	788.375029	931.863181	-51.328553	561.775333	1137.090558	-476.528548	803.933187	924.093169	-420.652066	-155.678421	1207.884296	-239.449204	52.422861	1242.232123	-450.070182	70.711559	1222.847726	-52.536100	85.412313	1166.544276	-415.321896	101.794436	1159.408414	-86.319676	-111.666214	1281.126908	-187.373759	-121.876385	1276.997032	-281.141985	18.758287	1064.073465	-33.259537	-12.126576	1107.366939	-458.690122	127.218522	963.596352	-28.057417	205.690599	923.200780	-40.190448	252.168762	850.350060	-56.681463	228.585716	950.594324	-51.316752	322.745163	771.136602	-76.299214	319.042695	754.475759	-203.964944	229.621629	642.190407	-64.883994	195.202813	563.243473	-84.637314	126.899172	508.985727	-86.330702	215.647138	552.327345	-116.738534	34.252889	412.670314	-99.770678	-27.952235	426.529549	-149.081117	202.617072	257.768202	-138.447705	127.483997	268.341030	-71.396862	123.043654	1031.212016	-467.617157	205.432726	1008.332316	-462.010264	224.975238	1038.688837	-453.463822	267.667647	943.399064	-457.653697	381.461223	857.872849	-428.551210	389.504612	852.368665	-302.386060	276.337339	440.012239	-411.477457	223.751701	387.253629	-377.575596	432.997256	369.902469	-438.987116	350.156162	734.912113	-449.326056	356.581866	649.975430	-434.220275	320.029946	569.915333	-430.597676	386.713043	647.641226	-411.045337	521.037705	408.353671	-367.832993	-206.014629	956.376591	-261.552115	1.349881	82.522847	-460.991930	-15.312713	81.020529	-62.504759	
253	1.2650	459.501309	1401.371517	-106.622873	453.883811	1419.360990	-409.988296	361.388033	1530.707504	-258.983697	403.154744	1354.780387	-265.059050	583.032166	1158.216944	-26.181848	788.136977	931.877574	-51.028435	560.401489	1136.378082	-477.148265	803.541916	924.618351	-421.071223	-155.557999	1207.941186	-239.900217	53.191185	1241.950921	-450.272217	70.660276	1222.948833	-52.649612	86.257537	1166.056709	-415.732620	102.066329	1159.522970	-86.147292	-111.294854	1280.765485	-187.444660	-121.491069	1276.686040	-281.586697	19.124215	1064.599228	-33.348198	-11.492467	1106.417290	-458.542086	128.331472	964.705486	-28.059326	207.114533	924.884006	-40.065539	254.027213	852.499258	-56.575812	229.758474	952.508045	-51.312634	325.030014	773.441080	-76.316046	321.217022	756.995814	-204.172202	231.189305	644.972061	-64.831458	196.215450	566.266798	-84.585445	127.496244	512.563527	-86.364243	216.620713	555.318398	-116.664395	34.427837	416.760461	-99.813018	-27.965211	431.393810	-149.061924	201.902673	260.748553	-138.578454	126.713700	271.966095	-71.441281	123.134081	1029.042962	-467.260090	205.289524	1005.433895	-461.504799	225.103466	1035.654614	-453.257074	266.869703	939.898409	-456.708995	379.867475	853.793637	-427.744704	387.616592	848.125806	-301.490154	276.603458	435.417555	-411.347809	224.280823	382.388775	-377.663976	433.632055	365.933539	-438.934708	349.067095	730.672363	-448.703819	356.001480	645.716273	-433.592888	319.887240	565.517983	-430.260598	386.115279	643.574709	-410.544986	521.526004	404.866917	-367.881790	-205.957912	956.385433	-261.522025	1.356189	82.489519	-460.998598	-15.240420	81.021091	-62.575046	
254	1.2700	460.050477	1401.998215	-106.551978	454.389410	1420.092907	-409.693116	361.836452	1530.858144	-258.650157	403.816529	1354.881896	-264.791214	582.458784	1158.086335	-25.217563	787.880176	931.954873	-50.641705	558.873226	1135.682371	-477.731597	803.018218	924.883704	-421.222767	-155.257931	1207.843989	-240.325980	53.764134	1241.378666	-450.136947	70.650946	1223.111284	-52.790386	87.076391	1165.697150	-416.124565	102.064288	1159.586611	-86.191049	-108.435141	1279.600409	-189.475418	-119.828023	1276.104498	-282.902748	19.501093	1065.029696	-33.443519	-10.780812	1105.506590	-458.307952	129.397365	965.870071	-28.019509	208.453199	926.568127	-39.998571	255.895750	854.432104	-56.445822	230.931273	954.333507	-51.242160	327.229289	775.780309	-76.293896	323.440940	759.302633	-204.204726	232.644548	647.896608	-64.866387	197.164719	569.501192	-84.691051	128.117819	516.173714	-86.481512	217.886840	557.991828	-116.578013	34.584851	420.778726	-99.842666	-27.816358	435.872725	-149.190652	201.182612	263.838539	-138.481587	126.093582	275.494622	-71.462455	123.273976	1026.946941	-466.908688	205.124030	1002.563048	-461.019493	225.336940	1032.587060	-453.010456	266.090419	936.424828	-455.798849	378.273325	849.754679	-427.011034	385.738805	843.987589	-300.680076	276.817671	430.887249	-411.260693	224.844940	377.491722	-377.552733	434.199462	361.939401	-438.950025	348.133180	726.453145	-448.187462	355.436247	641.583915	-433.153621	319.811795	561.209403	-429.946234	385.581336	639.613882	-410.128217	522.059769	400.996031	-367.574732	-205.910196	956.399220	-261.494172	1.363353	82.488111	-461.002581	-15.291654	81.015991	-62.505093	
